<svg width="68" height="54" viewBox="0 0 68 54" xmlns="http://www.w3.org/2000/svg"><g fill="none" fill-rule="evenodd"><path d="M5.163 23.143v18h7.735v-18H5.163zm15.47 0v18h7.735v-18h-7.734zM.008 54h48.988v-7.715H.007V54zm36.095-30.857v18h7.735v-18H36.102zM24.501 0L.007 12.857V18h48.988v-5.143L24.499 0h.002z" fill="#41CC89" fill-rule="nonzero"/><g transform="translate(30 16)"><circle fill="#FFF" cx="19" cy="19" r="15"/><path d="M19 0C8.503 0 0 8.507 0 19s8.503 19 19 19c10.493 0 19-8.507 19-19S29.493 0 19 0zm9.268 18.304v3.706h-7.413v1.777h7.413v3.706h-7.413v3.786H17.15v-3.786H9.732v-3.706h7.417V22.01H9.732v-3.706h6.958l-7.723-7.728 2.62-2.62L19 15.372l7.417-7.418 2.621 2.621-7.723 7.728h6.953z" fill="#89E5B9" fill-rule="nonzero"/></g></g></svg>