<svg width="49" height="51" viewBox="0 0 49 51" xmlns="http://www.w3.org/2000/svg"><g fill="none" fill-rule="evenodd"><path d="M2 .433h37.465a2 2 0 0 1 2 2v17.405h.961l2.805 30.218H4a4 4 0 0 1-4-4V2.433a2 2 0 0 1 2-2z" fill="#FFBE58"/><path d="M41.462 19.833H49v26.453a3.77 3.77 0 0 1-7.538 0V19.833z" fill="#F9D8A5"/><rect fill="#FFF" x="5.654" y="7.556" width="30.154" height="10.389" rx="2"/><rect fill="#FFF" x="5.654" y="21.722" width="30.154" height="2.833" rx="1.417"/><rect fill="#FFF" x="5.654" y="28.333" width="30.154" height="2.833" rx="1.417"/><rect fill="#FFF" x="5.654" y="34.944" width="19.788" height="2.833" rx="1.417"/></g></svg>