<svg width="54" height="49" viewBox="0 0 54 49" xmlns="http://www.w3.org/2000/svg"><g fill="none" fill-rule="evenodd"><g><rect fill="#57DB9B" opacity=".7" width="32.4" height="49" rx="2.7"/><path fill="#FFF" d="M3.6 6.352h25.2v33.674H3.6z"/></g><path fill="#FFF" d="M25.2 22.685h20.7v13.611H25.2z"/><path d="M32.545 5.602c-.221 0-.45.09-.643.287-2.31 2.51-4.667 5.03-6.924 7.562h2.357L33.2 7.06a.86.86 0 0 0-.054-1.227.904.904 0 0 0-.602-.232zm6.91 0a.912.912 0 0 0-.602.232.86.86 0 0 0-.054 1.226l5.866 6.39h2.357c-2.257-2.532-4.615-5.05-6.924-7.561a.904.904 0 0 0-.643-.287zm-18.884 8.72C19.147 14.323 18 15.49 18 16.94v1.744c0 1.45 1.147 2.616 2.571 2.616H51.43c1.424 0 2.571-1.166 2.571-2.616V16.94c0-1.45-1.147-2.616-2.571-2.616H20.57zm.991 6.977l2.01 13.77c.389 2.19 2.097 3.671 4.285 3.671h16.286c2.188 0 3.896-1.481 4.286-3.671l2.008-13.77H21.564zm22.112 2.59a.85.85 0 0 1 .69.298.883.883 0 0 1 .194.737l-1.714 10.464a.87.87 0 0 1-.535.724.846.846 0 0 1-.877-.15.881.881 0 0 1-.276-.86l1.715-10.464a.865.865 0 0 1 .723-.736.844.844 0 0 1 .08-.014zm-15.522.013a.844.844 0 0 1 .067 0 .86.86 0 0 1 .91.736l1.715 10.464a.881.881 0 0 1-.276.86.846.846 0 0 1-.877.15.87.87 0 0 1-.535-.724l-1.714-10.464a.884.884 0 0 1 .143-.664.855.855 0 0 1 .567-.358zm7.754 0a.848.848 0 0 1 .673.223.88.88 0 0 1 .278.663v10.464a.875.875 0 0 1-.425.766.845.845 0 0 1-.864 0 .875.875 0 0 1-.425-.766V24.788a.867.867 0 0 1 .763-.886z" fill-rule="nonzero" fill="#41CC89"/></g></svg>