<svg width="47" height="50" viewBox="0 0 47 50" xmlns="http://www.w3.org/2000/svg"><g fill="none" fill-rule="evenodd"><g transform="translate(3.615)" fill-rule="nonzero" fill="#8C91F1"><ellipse cx="19.411" cy="16.75" rx="11.763" ry="11.607"/><path d="M36.2 13.451C34.513 6.027 27.648.468 19.432.468c-8.173 0-15.01 5.502-16.741 12.87-1.112.147-1.967 1.065-1.967 2.177v2.259c0 1.213 1.021 2.198 2.282 2.198h1.44a.495.495 0 0 0 .503-.485v-5.686a.494.494 0 0 0-.504-.485h-.243C5.909 6.74 12.082 1.87 19.432 1.87c7.35 0 13.523 4.87 15.23 11.447h-.691a.494.494 0 0 0-.503.485v5.686c0 .268.225.485.503.485h.898c-.688 3.592-2.703 6.814-5.685 9.095a.68.68 0 0 0-.115.985.756.756 0 0 0 1.03.11c3.386-2.591 5.632-6.294 6.293-10.403.77-.354 1.3-1.11 1.3-1.985v-2.26c0-.946-.62-1.753-1.492-2.063z"/></g><path d="M18.75 31.25h9.5C38.605 31.25 47 39.645 47 50H0c0-10.355 8.395-18.75 18.75-18.75z" fill="#B8BCF7"/></g></svg>