<svg width="59" height="46" viewBox="0 0 59 46" xmlns="http://www.w3.org/2000/svg"><g fill="none" fill-rule="evenodd"><path d="M6.612 46h45.971a1.8 1.8 0 0 0 1.8-1.8V15.542H4.813V44.2a1.8 1.8 0 0 0 1.8 1.8z" fill="#F9D8A5"/><rect fill="#FFF" x="11.711" y="27.059" width="19.113" height="9.02" rx="1.8"/><path d="M6.082 23.29c-3.686 0-6.437-3.345-5.677-6.901L3.517 1.834A1.8 1.8 0 0 1 5.277.411h8.855l-2.293 17.876c-.367 2.86-2.834 5.004-5.757 5.004z" fill="#FFBE58"/><path d="M17.901 23.29h-.122c-3.493 0-6.194-3.021-5.756-6.439L14.132.411h10.31l-.744 17.4c-.13 3.062-2.687 5.48-5.797 5.48z" fill="#FFBE58"/><path d="M29.68 23.29h-.164c-3.3 0-5.936-2.71-5.797-5.962L24.442.411h10.311l.724 16.917c.138 3.252-2.497 5.963-5.797 5.963z" fill="#FFBE58"/><path d="M41.416 23.29h-.122c-3.11 0-5.666-2.417-5.797-5.48L34.753.41h10.311l2.109 16.441c.438 3.418-2.263 6.44-5.757 6.44z" fill="#FFBE58"/><path d="M53.113 23.29c-2.923 0-5.39-2.143-5.757-5.003L45.064.411h8.855a1.8 1.8 0 0 1 1.76 1.423L58.79 16.39c.76 3.556-1.99 6.902-5.677 6.902z" fill="#FFBE58"/></g></svg>