<svg width="56" height="47" viewBox="0 0 56 47" xmlns="http://www.w3.org/2000/svg"><g fill="none" fill-rule="evenodd"><rect fill="#FF9A58" x=".638" y="3.729" width="55.073" height="43.082" rx="1.8"/><path d="M29.696.829c-1.059 0-1.917 1.023-1.917 2.285 0-1.262-.86-2.285-1.918-2.285H6.623a.9.9 0 0 0-.9.9v35.914a.9.9 0 0 0 .9.9h19.238c1.059 0 1.917 1.023 1.917 2.286 0-1.263.86-2.286 1.918-2.286h19.237a.9.9 0 0 0 .9-.9V1.73a.9.9 0 0 0-.9-.9H29.696z" fill="#FDC5A0" fill-rule="nonzero"/><path d="M10.43 10.429h13.934c.555 0 1.005-.49 1.005-1.093 0-.604-.45-1.094-1.005-1.094H10.43c-.555 0-1.005.49-1.005 1.094 0 .603.45 1.093 1.005 1.093z" fill="#FFF" fill-rule="nonzero"/><path d="M24.382 13.131h-6.43c-.556 0-1.006.49-1.006 1.094 0 .603.45 1.093 1.005 1.093h6.43c.556 0 1.006-.49 1.006-1.093 0-.604-.45-1.094-1.005-1.094z" fill="#FFF" fill-rule="nonzero"/><path d="M10.43 15.318h3.216c.555 0 1.005-.49 1.005-1.093 0-.604-.45-1.094-1.005-1.094h-3.215c-.555 0-1.005.49-1.005 1.094 0 .603.45 1.093 1.005 1.093z" fill="#FFF" fill-rule="nonzero"/><path d="M10.43 19.664h5.36c.555 0 1.005-.49 1.005-1.094 0-.604-.45-1.093-1.005-1.093h-5.36c-.554 0-1.004.49-1.004 1.093 0 .604.45 1.094 1.005 1.094z" fill="#FFF" fill-rule="nonzero"/></g></svg>