<svg width="58" height="49" viewBox="0 0 58 49" xmlns="http://www.w3.org/2000/svg"><g fill="none" fill-rule="evenodd"><g><rect fill="#8DB0FD" width="32.625" height="49" rx="2.7"/><path fill="#FFF" d="M3.625 6.352H29v33.674H3.625z"/></g><path fill="#FFF" d="M14.5 15.426h15.406v14.52H14.5z"/><path fill="#FFF" d="M38.969 15.426h15.406v14.52H38.969z"/><path d="M46.448 11.796H22.322c-6.322 0-11.447 5.067-11.447 11.318 0 6.25 5.125 11.317 11.447 11.317 3.79 0 7.147-1.82 9.23-4.624h5.667a11.471 11.471 0 0 0 9.23 4.624c6.322 0 11.447-5.067 11.447-11.317S52.77 11.796 46.448 11.796zm-17.693 13.17h-4.56v4.508H20.45v-4.509h-4.56v-3.702h4.56v-4.509h3.745v4.509h4.56v3.702zm16.555-2.977a2.633 2.633 0 0 1-3.694 0 2.562 2.562 0 0 1 0-3.652 2.633 2.633 0 0 1 3.694 0 2.562 2.562 0 0 1 0 3.652zm5.97 5.902a2.633 2.633 0 0 1-3.694 0 2.562 2.562 0 0 1 0-3.652 2.633 2.633 0 0 1 3.695 0 2.562 2.562 0 0 1 0 3.652z" fill="#566BFE" fill-rule="nonzero"/></g></svg>