<svg width="58" height="42" viewBox="0 0 58 42" xmlns="http://www.w3.org/2000/svg"><g fill="none" fill-rule="evenodd"><path d="M4.395 3.682c1.631 0 2.954 1.299 2.954 2.9-.001 1.602-1.323 2.9-2.953 2.9l-.001 2.452c1.632.001 2.953 1.298 2.954 2.901 0 1.602-1.322 2.902-2.954 2.902v2.45c1.632 0 2.954 1.3 2.954 2.901 0 1.602-1.322 2.901-2.955 2.902v1.915h.001c0 .974.79 1.763 1.764 1.763l39.578.001L45.736 0H6.159c-.974 0-1.764.79-1.764 1.764v1.918zm52.791 16.505l-.002-2.452c-1.63.002-2.953-1.298-2.953-2.9.001-1.6 1.323-2.9 2.954-2.9v-2.45c-1.631-.002-2.953-1.302-2.954-2.902 0-1.603 1.323-2.901 2.955-2.902l-.001-1.916h-.001C57.183.791 56.394.002 55.42.002H40.102V29.67h15.32c.975 0 1.765-.79 1.765-1.764v-1.915c-1.633 0-2.956-1.3-2.954-2.902-.002-1.602 1.32-2.902 2.953-2.902z" fill="#DE5EFD" fill-rule="nonzero"/><path fill="#FFF" d="M42.084 0h4.53v29.67h-4.53z"/><g><path d="M.001 15.209c1.631-.002 2.954 1.298 2.954 2.9-.001 1.6-1.323 2.9-2.952 2.9L0 23.459c1.633.003 2.953 1.3 2.954 2.902 0 1.602-1.321 2.902-2.954 2.902v2.45c1.633 0 2.954 1.3 2.954 2.901 0 1.602-1.321 2.901-2.955 2.902v1.915h.001c0 .974.79 1.764 1.764 1.764h39.578l-.001-29.669H1.765c-.974 0-1.764.79-1.764 1.764v1.919zm52.791 16.504l-.002-2.452c-1.63.002-2.953-1.298-2.953-2.9.001-1.6 1.323-2.9 2.954-2.9v-2.45c-1.63-.002-2.953-1.302-2.954-2.902 0-1.603 1.323-2.901 2.955-2.902l-.001-1.916h-.001c0-.973-.79-1.762-1.764-1.762l-15.318-.002.001 29.67h15.32c.974 0 1.764-.79 1.764-1.765v-1.915c-1.632 0-2.955-1.3-2.954-2.901-.002-1.603 1.321-2.903 2.953-2.903z" fill="#EDA2FF" fill-rule="nonzero"/><path fill="#FFF" d="M37.69 11.526h4.531v29.67H37.69z"/><path d="M25.403 29.126c0-2.553-2.056-4.63-4.583-4.63h-3.056a1.537 1.537 0 0 1-1.527-1.544c0-.852.686-1.543 1.527-1.543H23.875v-3.087H20.82v-3.087h-3.056v3.087c-2.526 0-4.583 2.077-4.583 4.63s2.057 4.63 4.583 4.63h3.056c.842 0 1.527.692 1.527 1.544 0 .852-.685 1.544-1.527 1.544H14.709v3.087h3.055v3.086h3.056v-3.086c2.527 0 4.583-2.078 4.583-4.63z" fill="#FFF" fill-rule="nonzero"/></g></g></svg>